<mxfile host="app.diagrams.net" agent="Mozilla/5.0 (Windows NT 10.0; Win64; x64) AppleWebKit/537.36 (KHTML, like Gecko) Chrome/133.0.0.0 Safari/537.36 Edg/133.0.0.0" version="26.0.16">
  <diagram name="第 1 页" id="ux8WEZcNqBR8RINytSVA">
    <mxGraphModel dx="1042" dy="573" grid="0" gridSize="10" guides="1" tooltips="1" connect="1" arrows="1" fold="1" page="0" pageScale="1" pageWidth="827" pageHeight="1169" math="0" shadow="0">
      <root>
        <mxCell id="0" />
        <mxCell id="1" parent="0" />
        <mxCell id="MJ6JbtTXi98HIJlVesD6-1" value="" style="edgeStyle=orthogonalEdgeStyle;rounded=0;orthogonalLoop=1;jettySize=auto;html=1;entryX=0.5;entryY=0;entryDx=0;entryDy=0;" edge="1" parent="1" source="MJ6JbtTXi98HIJlVesD6-2" target="MJ6JbtTXi98HIJlVesD6-4">
          <mxGeometry relative="1" as="geometry" />
        </mxCell>
        <mxCell id="MJ6JbtTXi98HIJlVesD6-2" value="开始" style="rounded=1;whiteSpace=wrap;html=1;" vertex="1" parent="1">
          <mxGeometry x="335.5" width="97" height="40" as="geometry" />
        </mxCell>
        <mxCell id="MJ6JbtTXi98HIJlVesD6-3" value="" style="edgeStyle=orthogonalEdgeStyle;rounded=0;orthogonalLoop=1;jettySize=auto;html=1;" edge="1" parent="1" source="MJ6JbtTXi98HIJlVesD6-4" target="MJ6JbtTXi98HIJlVesD6-6">
          <mxGeometry relative="1" as="geometry" />
        </mxCell>
        <mxCell id="MJ6JbtTXi98HIJlVesD6-4" value="员工登入系统" style="rounded=0;whiteSpace=wrap;html=1;" vertex="1" parent="1">
          <mxGeometry x="324" y="68" width="120" height="60" as="geometry" />
        </mxCell>
        <mxCell id="MJ6JbtTXi98HIJlVesD6-5" value="" style="edgeStyle=orthogonalEdgeStyle;rounded=0;orthogonalLoop=1;jettySize=auto;html=1;" edge="1" parent="1" source="MJ6JbtTXi98HIJlVesD6-6" target="MJ6JbtTXi98HIJlVesD6-8">
          <mxGeometry relative="1" as="geometry" />
        </mxCell>
        <mxCell id="MJ6JbtTXi98HIJlVesD6-6" value="物品管理" style="rounded=0;whiteSpace=wrap;html=1;" vertex="1" parent="1">
          <mxGeometry x="324" y="152" width="120" height="60" as="geometry" />
        </mxCell>
        <mxCell id="MJ6JbtTXi98HIJlVesD6-7" value="" style="edgeStyle=orthogonalEdgeStyle;rounded=0;orthogonalLoop=1;jettySize=auto;html=1;" edge="1" parent="1" source="MJ6JbtTXi98HIJlVesD6-8" target="MJ6JbtTXi98HIJlVesD6-11">
          <mxGeometry relative="1" as="geometry" />
        </mxCell>
        <mxCell id="MJ6JbtTXi98HIJlVesD6-8" value="添加物品" style="rounded=0;whiteSpace=wrap;html=1;" vertex="1" parent="1">
          <mxGeometry x="324" y="236" width="120" height="60" as="geometry" />
        </mxCell>
        <mxCell id="MJ6JbtTXi98HIJlVesD6-9" value="" style="edgeStyle=orthogonalEdgeStyle;rounded=0;orthogonalLoop=1;jettySize=auto;html=1;" edge="1" parent="1" source="MJ6JbtTXi98HIJlVesD6-11" target="MJ6JbtTXi98HIJlVesD6-14">
          <mxGeometry relative="1" as="geometry" />
        </mxCell>
        <mxCell id="MJ6JbtTXi98HIJlVesD6-10" style="edgeStyle=orthogonalEdgeStyle;rounded=0;orthogonalLoop=1;jettySize=auto;html=1;entryX=1;entryY=0.5;entryDx=0;entryDy=0;exitX=1;exitY=0.5;exitDx=0;exitDy=0;" edge="1" parent="1" source="MJ6JbtTXi98HIJlVesD6-11" target="MJ6JbtTXi98HIJlVesD6-8">
          <mxGeometry relative="1" as="geometry" />
        </mxCell>
        <mxCell id="MJ6JbtTXi98HIJlVesD6-11" value="更新数据" style="rhombus;whiteSpace=wrap;html=1;rounded=0;" vertex="1" parent="1">
          <mxGeometry x="320" y="340" width="128" height="59" as="geometry" />
        </mxCell>
        <mxCell id="MJ6JbtTXi98HIJlVesD6-12" style="edgeStyle=orthogonalEdgeStyle;rounded=0;orthogonalLoop=1;jettySize=auto;html=1;" edge="1" parent="1" source="MJ6JbtTXi98HIJlVesD6-14" target="MJ6JbtTXi98HIJlVesD6-16">
          <mxGeometry relative="1" as="geometry" />
        </mxCell>
        <mxCell id="MJ6JbtTXi98HIJlVesD6-13" style="edgeStyle=orthogonalEdgeStyle;rounded=0;orthogonalLoop=1;jettySize=auto;html=1;" edge="1" parent="1" source="MJ6JbtTXi98HIJlVesD6-14" target="MJ6JbtTXi98HIJlVesD6-18">
          <mxGeometry relative="1" as="geometry" />
        </mxCell>
        <mxCell id="MJ6JbtTXi98HIJlVesD6-14" value="物品流转选择" style="whiteSpace=wrap;html=1;rounded=0;" vertex="1" parent="1">
          <mxGeometry x="324" y="431" width="120" height="60" as="geometry" />
        </mxCell>
        <mxCell id="MJ6JbtTXi98HIJlVesD6-15" value="" style="edgeStyle=orthogonalEdgeStyle;rounded=0;orthogonalLoop=1;jettySize=auto;html=1;" edge="1" parent="1" source="MJ6JbtTXi98HIJlVesD6-16" target="MJ6JbtTXi98HIJlVesD6-20">
          <mxGeometry relative="1" as="geometry" />
        </mxCell>
        <mxCell id="MJ6JbtTXi98HIJlVesD6-16" value="物品出库" style="whiteSpace=wrap;html=1;rounded=0;" vertex="1" parent="1">
          <mxGeometry x="193" y="537" width="120" height="60" as="geometry" />
        </mxCell>
        <mxCell id="MJ6JbtTXi98HIJlVesD6-17" value="" style="edgeStyle=orthogonalEdgeStyle;rounded=0;orthogonalLoop=1;jettySize=auto;html=1;" edge="1" parent="1" source="MJ6JbtTXi98HIJlVesD6-18" target="MJ6JbtTXi98HIJlVesD6-26">
          <mxGeometry relative="1" as="geometry" />
        </mxCell>
        <mxCell id="MJ6JbtTXi98HIJlVesD6-18" value="物品退回" style="whiteSpace=wrap;html=1;rounded=0;" vertex="1" parent="1">
          <mxGeometry x="459" y="537" width="120" height="60" as="geometry" />
        </mxCell>
        <mxCell id="MJ6JbtTXi98HIJlVesD6-19" value="" style="edgeStyle=orthogonalEdgeStyle;rounded=0;orthogonalLoop=1;jettySize=auto;html=1;" edge="1" parent="1" source="MJ6JbtTXi98HIJlVesD6-20" target="MJ6JbtTXi98HIJlVesD6-23">
          <mxGeometry relative="1" as="geometry" />
        </mxCell>
        <mxCell id="MJ6JbtTXi98HIJlVesD6-20" value="选择对应的供应商" style="whiteSpace=wrap;html=1;rounded=0;" vertex="1" parent="1">
          <mxGeometry x="193" y="656" width="120" height="60" as="geometry" />
        </mxCell>
        <mxCell id="MJ6JbtTXi98HIJlVesD6-21" style="edgeStyle=orthogonalEdgeStyle;rounded=0;orthogonalLoop=1;jettySize=auto;html=1;entryX=0;entryY=0.75;entryDx=0;entryDy=0;" edge="1" parent="1" source="MJ6JbtTXi98HIJlVesD6-23" target="MJ6JbtTXi98HIJlVesD6-20">
          <mxGeometry relative="1" as="geometry">
            <Array as="points">
              <mxPoint x="169" y="804" />
              <mxPoint x="169" y="701" />
            </Array>
          </mxGeometry>
        </mxCell>
        <mxCell id="MJ6JbtTXi98HIJlVesD6-22" style="edgeStyle=orthogonalEdgeStyle;rounded=0;orthogonalLoop=1;jettySize=auto;html=1;" edge="1" parent="1" source="MJ6JbtTXi98HIJlVesD6-23" target="MJ6JbtTXi98HIJlVesD6-29">
          <mxGeometry relative="1" as="geometry" />
        </mxCell>
        <mxCell id="MJ6JbtTXi98HIJlVesD6-23" value="更新数据" style="rhombus;whiteSpace=wrap;html=1;rounded=0;" vertex="1" parent="1">
          <mxGeometry x="189" y="775" width="128" height="59" as="geometry" />
        </mxCell>
        <mxCell id="MJ6JbtTXi98HIJlVesD6-24" style="edgeStyle=orthogonalEdgeStyle;rounded=0;orthogonalLoop=1;jettySize=auto;html=1;entryX=1;entryY=0.5;entryDx=0;entryDy=0;exitX=1;exitY=0.5;exitDx=0;exitDy=0;" edge="1" parent="1" source="MJ6JbtTXi98HIJlVesD6-26" target="MJ6JbtTXi98HIJlVesD6-18">
          <mxGeometry relative="1" as="geometry" />
        </mxCell>
        <mxCell id="MJ6JbtTXi98HIJlVesD6-25" style="edgeStyle=orthogonalEdgeStyle;rounded=0;orthogonalLoop=1;jettySize=auto;html=1;" edge="1" parent="1" source="MJ6JbtTXi98HIJlVesD6-26" target="MJ6JbtTXi98HIJlVesD6-29">
          <mxGeometry relative="1" as="geometry" />
        </mxCell>
        <mxCell id="MJ6JbtTXi98HIJlVesD6-26" value="更新数据" style="rhombus;whiteSpace=wrap;html=1;rounded=0;" vertex="1" parent="1">
          <mxGeometry x="455" y="682" width="128" height="59" as="geometry" />
        </mxCell>
        <mxCell id="MJ6JbtTXi98HIJlVesD6-27" value="失败" style="text;html=1;align=center;verticalAlign=middle;resizable=0;points=[];autosize=1;strokeColor=none;fillColor=none;" vertex="1" parent="1">
          <mxGeometry x="115" y="730" width="42" height="26" as="geometry" />
        </mxCell>
        <mxCell id="MJ6JbtTXi98HIJlVesD6-28" value="失败" style="text;html=1;align=center;verticalAlign=middle;resizable=0;points=[];autosize=1;strokeColor=none;fillColor=none;" vertex="1" parent="1">
          <mxGeometry x="603" y="619" width="42" height="26" as="geometry" />
        </mxCell>
        <mxCell id="MJ6JbtTXi98HIJlVesD6-29" value="结束" style="rounded=1;whiteSpace=wrap;html=1;" vertex="1" parent="1">
          <mxGeometry x="335.5" y="868" width="120" height="60" as="geometry" />
        </mxCell>
        <mxCell id="MJ6JbtTXi98HIJlVesD6-30" value="成功" style="text;html=1;align=center;verticalAlign=middle;resizable=0;points=[];autosize=1;strokeColor=none;fillColor=none;" vertex="1" parent="1">
          <mxGeometry x="294" y="760" width="42" height="26" as="geometry" />
        </mxCell>
        <mxCell id="MJ6JbtTXi98HIJlVesD6-31" value="成功" style="text;html=1;align=center;verticalAlign=middle;resizable=0;points=[];autosize=1;strokeColor=none;fillColor=none;" vertex="1" parent="1">
          <mxGeometry x="459" y="763" width="42" height="26" as="geometry" />
        </mxCell>
        <mxCell id="MJ6JbtTXi98HIJlVesD6-32" value="失败" style="text;html=1;align=center;verticalAlign=middle;resizable=0;points=[];autosize=1;strokeColor=none;fillColor=none;" vertex="1" parent="1">
          <mxGeometry x="478" y="293" width="42" height="26" as="geometry" />
        </mxCell>
        <mxCell id="MJ6JbtTXi98HIJlVesD6-33" value="成功" style="text;html=1;align=center;verticalAlign=middle;resizable=0;points=[];autosize=1;strokeColor=none;fillColor=none;" vertex="1" parent="1">
          <mxGeometry x="393" y="393" width="42" height="26" as="geometry" />
        </mxCell>
      </root>
    </mxGraphModel>
  </diagram>
</mxfile>
